# xmcd
#
# Track frame offsets:
#	150
#	50787
#	54235
#	59050
#	112215
#	127520
#	192735
#	243640
#	274527
#	311327
#
# Disc length: 4318 seconds
#
# Revision: 2
# Processed by: cddbd v1.5.2PL0 Copyright (c) Steve Scherf et al.
# Submitted via: audiograbber 1.83.01
#
DISCID=9510dc0a
DTITLE=Eiji Oue and Minnesota Orchestra - Mephisto and Co. [HDCD]
DYEAR=1998
DGENRE=Classical
TTITLE0=Franz Liszt - Mephisto Waltz #1
TTITLE1=Franz Liszt - Mephisto Waltz #1 - First Ending
TTITLE2=Franz Liszt - Mephisto Waltz #1 - Second Ending
TTITLE3=Modest Mussorgsky - Night On Bald Mountain
TTITLE4=Anatoly Liadov - Baba Yaga
TTITLE5=César Franck - The Accursed Huntsman
TTITLE6=Paul Dukas - The Sorcerer's Apprentice
TTITLE7=Camille Saint-Saëns - Danse Macabre
TTITLE8=Malcolm Arnold - Tom O' Shanter
TTITLE9=Johann Strauss II - Lucifer Polka
EXTD=
EXTT0=
EXTT1=
EXTT2=
EXTT3=
EXTT4=
EXTT5=
EXTT6=
EXTT7=
EXTT8=
EXTT9=
PLAYORDER=
